<svg height="682.667" version="1.0" viewBox="0 0 512 512" width="682.667" xmlns="http://www.w3.org/2000/svg"><path d="M228.5 22.2c-31.1 3.5-68.3 16.5-95.5 33.3-22 13.7-47.2 36.1-62.2 55.5-25.6 33.1-41.7 71.2-48 113.5-2 13.6-1.7 51.2.5 65.5C33.6 356.5 70.4 414.5 126 451.6c28.7 19.1 62.3 32 96.6 37.1 16.4 2.4 50.4 2.4 66.8 0 41.1-6.1 81.5-23.7 113.6-49.4 45.9-36.8 76.4-89.7 85.7-148.5 2.5-15.9 2.5-53.7 0-69.6-8.3-52.4-32.9-99.5-70.8-135.6-37-35.2-86.1-58.1-136.1-63.5-11.4-1.3-41.9-1.2-53.3.1zM358.2 162l56.9 57.1-.3 83.2c-.3 94.4.4 86.5-8.9 95.7-5.8 5.8-12.2 8-22.9 8-6.5 0-7.9-.3-8.5-1.8-.4-.9-2.4-6.5-4.6-12.5l-3.8-10.7h10.7c7.1 0 11.2-.4 12-1.2.9-.9 1.2-20.3 1.2-80.9v-79.8l-33.7-.3-33.8-.3-5.2-2.8c-6-3.1-12.7-10.9-14.3-16.5-.6-2.2-1-16.6-1-34.9 0-17.1-.3-31.8-.6-32.7-.5-1.4-5-1.6-39.4-1.6-21.4 0-39.5.3-40.4.6-1.4.5-1.6 4.5-1.6 34 0 18.4-.3 33.4-.6 33.4s-4-3.3-8.2-7.4c-4.2-4-9.8-9.3-12.4-11.6l-4.8-4.3v-20.8c0-11.4.5-23.2 1.1-26.1 2.1-10.3 7.7-17 17.6-20.8 4.4-1.8 8.1-1.9 46.7-2h41.9l56.9 57zM160 156c5.4 4.8 20.8 19.8 21.4 20.8.6 1.1-6 8.4-43.1 47.6-9.2 9.6-9.5 9.8-11.2 8-1-1.1-8.2-7.9-15.9-15.2l-14.1-13.3 1.1-3.2c4.9-14.2 26.6-38.5 43.4-48.5l8.8-5.2 3.9 3.7c2.2 2.1 4.8 4.5 5.7 5.3zm39.8 37.2c4.2 4 11.3 10.8 15.7 15l7.9 7.6-4.9 5.4c-2.7 2.9-11.3 12-19.1 20.3-7.8 8.2-17.6 18.6-21.7 23l-7.5 8-2.4-2c-9.8-8.4-28.8-27.1-28.6-28.1.2-.8 7.3-8.7 15.9-17.6 8.5-9 20.2-21.4 26-27.5 5.7-6.2 10.5-11.3 10.7-11.3.1 0 3.7 3.3 8 7.2zm46.8 44.3c24.1 22.6 31.6 29.8 40.9 38.6 4.9 4.7 11.9 11.3 15.4 14.5 3.5 3.2 11.3 10.6 17.3 16.4l10.9 10.5-18.3 19.4c-10.1 10.7-22.1 23.4-26.8 28.3l-8.5 9-10.5-9.9c-20-18.7-47.5-44.7-56-52.7-4.7-4.5-13.8-13-20.3-19-6.4-6.1-11.7-11.3-11.7-11.6 0-.7 1.8-2.6 20.5-22.5 7.2-7.7 17.4-18.6 22.6-24.3 5.1-5.6 9.7-10.1 10-10 .4.2 6.9 6.1 14.5 13.3zm-39 84.1l12.4 11.6.2 23.6.3 23.7 21.5.5 21.5.5 16 4.9c22.6 6.8 40.2 12 53.4 15.8l11.5 3.3-62.4.3c-72.8.3-69.8.6-78.9-8.6-3.2-3.2-6.3-7.4-7.1-9.7-1.1-3.1-1.5-12.5-1.7-40.8-.2-20.2-.1-36.7.3-36.7s6.2 5.2 13 11.6zm132.8 8.6c2.5 7.1 11.2 31.1 13.5 37.3 5.5 14.4 13.1 36.8 12.8 37.2-.3.2-7.6-1.7-16.3-4.3-26.9-7.9-34.4-10.1-49.4-14.4-8-2.3-14.8-4.5-15.2-4.9-.3-.3 3.5-4.9 8.5-10.2 17.9-18.6 37.2-39.1 40.2-42.5 1.6-1.9 3.2-3.4 3.5-3.4.3 0 1.4 2.4 2.4 5.2z"/></svg>